<svg width="1080" height="1080" viewBox="0 0 1080 1080" fill="none" xmlns="http://www.w3.org/2000/svg">
<rect width="1080" height="1080" fill="black"/>
<mask id="path-1-outside-1_39_2" maskUnits="userSpaceOnUse" x="680" y="458" width="278" height="81" fill="black">
<rect fill="white" x="680" y="458" width="278" height="81"/>
<path d="M686.64 489H683.006L693.517 460.375H697.095L707.606 489H703.972L695.418 464.903H695.195L686.64 489ZM687.982 477.818H702.63V480.893H687.982V477.818ZM731.394 489H727.76L738.271 460.375H741.849L752.36 489H748.726L740.172 464.903H739.948L731.394 489ZM732.736 477.818H747.384V480.893H732.736V477.818ZM782.05 469.32H778.584C778.379 468.323 778.02 467.447 777.508 466.692C777.004 465.937 776.389 465.304 775.663 464.791C774.945 464.27 774.148 463.878 773.273 463.617C772.397 463.356 771.483 463.226 770.533 463.226C768.8 463.226 767.23 463.664 765.823 464.54C764.425 465.416 763.311 466.706 762.482 468.411C761.662 470.117 761.252 472.209 761.252 474.687C761.252 477.166 761.662 479.258 762.482 480.963C763.311 482.668 764.425 483.959 765.823 484.835C767.23 485.711 768.8 486.149 770.533 486.149C771.483 486.149 772.397 486.018 773.273 485.757C774.148 485.496 774.945 485.11 775.663 484.597C776.389 484.075 777.004 483.437 777.508 482.682C778.02 481.918 778.379 481.042 778.584 480.055H782.05C781.789 481.517 781.314 482.827 780.625 483.982C779.935 485.138 779.078 486.121 778.053 486.931C777.028 487.733 775.877 488.343 774.6 488.762C773.333 489.182 771.977 489.391 770.533 489.391C768.092 489.391 765.921 488.795 764.02 487.602C762.119 486.41 760.623 484.714 759.533 482.515C758.443 480.315 757.898 477.706 757.898 474.687C757.898 471.668 758.443 469.059 759.533 466.86C760.623 464.661 762.119 462.965 764.02 461.772C765.921 460.58 768.092 459.983 770.533 459.983C771.977 459.983 773.333 460.193 774.6 460.612C775.877 461.031 777.028 461.646 778.053 462.457C779.078 463.259 779.935 464.237 780.625 465.392C781.314 466.539 781.789 467.848 782.05 469.32ZM792.368 489H788.734L799.245 460.375H802.823L813.334 489H809.7L801.146 464.903H800.922L792.368 489ZM793.71 477.818H808.358V480.893H793.71V477.818ZM830.169 489H821.335V460.375H830.56C833.337 460.375 835.713 460.948 837.689 462.094C839.664 463.231 841.178 464.866 842.231 467C843.284 469.124 843.811 471.668 843.811 474.631C843.811 477.613 843.28 480.18 842.217 482.333C841.155 484.476 839.608 486.125 837.577 487.281C835.545 488.427 833.076 489 830.169 489ZM824.802 485.925H829.945C832.312 485.925 834.274 485.468 835.83 484.555C837.386 483.642 838.546 482.342 839.31 480.656C840.074 478.969 840.456 476.961 840.456 474.631C840.456 472.32 840.079 470.331 839.324 468.663C838.569 466.986 837.442 465.7 835.941 464.805C834.441 463.901 832.573 463.45 830.337 463.45H824.802V485.925ZM853.168 489V460.375H870.444V463.45H856.634V473.122H869.549V476.197H856.634V485.925H870.667V489H853.168ZM880.234 460.375H884.371L894.099 484.136H894.435L904.163 460.375H908.3V489H905.057V467.251H904.778L895.832 489H892.702L883.756 467.251H883.477V489H880.234V460.375ZM922.259 460.375V489H918.793V460.375H922.259ZM933.926 489H930.292L940.803 460.375H944.381L954.892 489H951.258L942.704 464.903H942.48L933.926 489ZM935.268 477.818H949.916V480.893H935.268V477.818ZM685.466 537V508.375H702.742V511.45H688.933V521.122H701.848V524.197H688.933V533.925H702.966V537H685.466ZM735.567 517.32H732.101C731.896 516.323 731.537 515.447 731.024 514.692C730.521 513.937 729.906 513.304 729.179 512.791C728.462 512.27 727.665 511.878 726.789 511.617C725.913 511.356 725 511.226 724.05 511.226C722.317 511.226 720.746 511.664 719.339 512.54C717.942 513.416 716.828 514.706 715.999 516.411C715.179 518.117 714.769 520.209 714.769 522.687C714.769 525.166 715.179 527.258 715.999 528.963C716.828 530.668 717.942 531.959 719.339 532.835C720.746 533.711 722.317 534.149 724.05 534.149C725 534.149 725.913 534.018 726.789 533.757C727.665 533.496 728.462 533.11 729.179 532.597C729.906 532.075 730.521 531.437 731.024 530.682C731.537 529.918 731.896 529.042 732.101 528.055H735.567C735.306 529.517 734.831 530.827 734.141 531.982C733.452 533.138 732.595 534.121 731.57 534.931C730.545 535.733 729.394 536.343 728.117 536.762C726.85 537.182 725.494 537.391 724.05 537.391C721.608 537.391 719.437 536.795 717.536 535.602C715.635 534.41 714.14 532.714 713.05 530.515C711.959 528.315 711.414 525.706 711.414 522.687C711.414 519.668 711.959 517.059 713.05 514.86C714.14 512.661 715.635 510.965 717.536 509.772C719.437 508.58 721.608 507.983 724.05 507.983C725.494 507.983 726.85 508.193 728.117 508.612C729.394 509.031 730.545 509.646 731.57 510.457C732.595 511.259 733.452 512.237 734.141 513.392C734.831 514.539 735.306 515.848 735.567 517.32ZM768.864 522.687C768.864 525.706 768.318 528.315 767.228 530.515C766.138 532.714 764.642 534.41 762.742 535.602C760.841 536.795 758.669 537.391 756.228 537.391C753.787 537.391 751.616 536.795 749.715 535.602C747.814 534.41 746.318 532.714 745.228 530.515C744.138 528.315 743.593 525.706 743.593 522.687C743.593 519.668 744.138 517.059 745.228 514.86C746.318 512.661 747.814 510.965 749.715 509.772C751.616 508.58 753.787 507.983 756.228 507.983C758.669 507.983 760.841 508.58 762.742 509.772C764.642 510.965 766.138 512.661 767.228 514.86C768.318 517.059 768.864 519.668 768.864 522.687ZM765.509 522.687C765.509 520.209 765.094 518.117 764.265 516.411C763.445 514.706 762.332 513.416 760.924 512.54C759.527 511.664 757.961 511.226 756.228 511.226C754.495 511.226 752.925 511.664 751.518 512.54C750.12 513.416 749.007 514.706 748.177 516.411C747.357 518.117 746.947 520.209 746.947 522.687C746.947 525.166 747.357 527.258 748.177 528.963C749.007 530.668 750.12 531.959 751.518 532.835C752.925 533.711 754.495 534.149 756.228 534.149C757.961 534.149 759.527 533.711 760.924 532.835C762.332 531.959 763.445 530.668 764.265 528.963C765.094 527.258 765.509 525.166 765.509 522.687ZM778.235 537V508.375H781.701V533.925H795.007V537H778.235ZM826.955 522.687C826.955 525.706 826.41 528.315 825.32 530.515C824.229 532.714 822.734 534.41 820.833 535.602C818.932 536.795 816.761 537.391 814.319 537.391C811.878 537.391 809.707 536.795 807.806 535.602C805.905 534.41 804.41 532.714 803.319 530.515C802.229 528.315 801.684 525.706 801.684 522.687C801.684 519.668 802.229 517.059 803.319 514.86C804.41 512.661 805.905 510.965 807.806 509.772C809.707 508.58 811.878 507.983 814.319 507.983C816.761 507.983 818.932 508.58 820.833 509.772C822.734 510.965 824.229 512.661 825.32 514.86C826.41 517.059 826.955 519.668 826.955 522.687ZM823.6 522.687C823.6 520.209 823.186 518.117 822.356 516.411C821.536 514.706 820.423 513.416 819.016 512.54C817.618 511.664 816.053 511.226 814.319 511.226C812.586 511.226 811.016 511.664 809.609 512.54C808.211 513.416 807.098 514.706 806.269 516.411C805.449 518.117 805.039 520.209 805.039 522.687C805.039 525.166 805.449 527.258 806.269 528.963C807.098 530.668 808.211 531.959 809.609 532.835C811.016 533.711 812.586 534.149 814.319 534.149C816.053 534.149 817.618 533.711 819.016 532.835C820.423 531.959 821.536 530.668 822.356 528.963C823.186 527.258 823.6 525.166 823.6 522.687ZM812.81 505.467L816.22 498.982H820.078L815.717 505.467H812.81ZM855.894 517.32C855.587 516.379 855.181 515.536 854.678 514.79C854.184 514.035 853.592 513.392 852.903 512.861C852.223 512.33 851.449 511.925 850.583 511.645C849.716 511.366 848.766 511.226 847.731 511.226C846.035 511.226 844.493 511.664 843.105 512.54C841.716 513.416 840.612 514.706 839.792 516.411C838.972 518.117 838.562 520.209 838.562 522.687C838.562 525.166 838.977 527.258 839.806 528.963C840.636 530.668 841.758 531.959 843.175 532.835C844.591 533.711 846.184 534.149 847.955 534.149C849.595 534.149 851.039 533.799 852.288 533.1C853.546 532.392 854.524 531.395 855.223 530.109C855.931 528.814 856.285 527.29 856.285 525.539L857.348 525.762H848.738V522.687H859.64V525.762C859.64 528.12 859.137 530.17 858.13 531.912C857.133 533.655 855.754 535.006 853.993 535.966C852.241 536.916 850.229 537.391 847.955 537.391C845.42 537.391 843.193 536.795 841.274 535.602C839.364 534.41 837.873 532.714 836.801 530.515C835.739 528.315 835.208 525.706 835.208 522.687C835.208 520.423 835.511 518.387 836.116 516.579C836.731 514.762 837.598 513.215 838.716 511.939C839.834 510.662 841.157 509.684 842.686 509.004C844.214 508.323 845.896 507.983 847.731 507.983C849.241 507.983 850.648 508.211 851.952 508.668C853.266 509.115 854.436 509.754 855.461 510.583C856.495 511.403 857.357 512.386 858.047 513.532C858.736 514.669 859.211 515.932 859.472 517.32H855.894ZM872.586 508.375V537H869.119V508.375H872.586ZM906.113 517.32H902.646C902.441 516.323 902.083 515.447 901.57 514.692C901.067 513.937 900.452 513.304 899.725 512.791C899.008 512.27 898.211 511.878 897.335 511.617C896.459 511.356 895.546 511.226 894.595 511.226C892.862 511.226 891.292 511.664 889.885 512.54C888.487 513.416 887.374 514.706 886.545 516.411C885.725 518.117 885.315 520.209 885.315 522.687C885.315 525.166 885.725 527.258 886.545 528.963C887.374 530.668 888.487 531.959 889.885 532.835C891.292 533.711 892.862 534.149 894.595 534.149C895.546 534.149 896.459 534.018 897.335 533.757C898.211 533.496 899.008 533.11 899.725 532.597C900.452 532.075 901.067 531.437 901.57 530.682C902.083 529.918 902.441 529.042 902.646 528.055H906.113C905.852 529.517 905.377 530.827 904.687 531.982C903.997 533.138 903.14 534.121 902.115 534.931C901.09 535.733 899.939 536.343 898.663 536.762C897.396 537.182 896.04 537.391 894.595 537.391C892.154 537.391 889.983 536.795 888.082 535.602C886.181 534.41 884.686 532.714 883.595 530.515C882.505 528.315 881.96 525.706 881.96 522.687C881.96 519.668 882.505 517.059 883.595 514.86C884.686 512.661 886.181 510.965 888.082 509.772C889.983 508.58 892.154 507.983 894.595 507.983C896.04 507.983 897.396 508.193 898.663 508.612C899.939 509.031 901.09 509.646 902.115 510.457C903.14 511.259 903.997 512.237 904.687 513.392C905.377 514.539 905.852 515.848 906.113 517.32ZM916.431 537H912.797L923.307 508.375H926.886L937.397 537H933.762L925.208 512.903H924.985L916.431 537ZM917.772 525.818H932.421V528.893H917.772V525.818Z"/>
</mask>
<path d="M686.64 489H683.006L693.517 460.375H697.095L707.606 489H703.972L695.418 464.903H695.195L686.64 489ZM687.982 477.818H702.63V480.893H687.982V477.818ZM731.394 489H727.76L738.271 460.375H741.849L752.36 489H748.726L740.172 464.903H739.948L731.394 489ZM732.736 477.818H747.384V480.893H732.736V477.818ZM782.05 469.32H778.584C778.379 468.323 778.02 467.447 777.508 466.692C777.004 465.937 776.389 465.304 775.663 464.791C774.945 464.27 774.148 463.878 773.273 463.617C772.397 463.356 771.483 463.226 770.533 463.226C768.8 463.226 767.23 463.664 765.823 464.54C764.425 465.416 763.311 466.706 762.482 468.411C761.662 470.117 761.252 472.209 761.252 474.687C761.252 477.166 761.662 479.258 762.482 480.963C763.311 482.668 764.425 483.959 765.823 484.835C767.23 485.711 768.8 486.149 770.533 486.149C771.483 486.149 772.397 486.018 773.273 485.757C774.148 485.496 774.945 485.11 775.663 484.597C776.389 484.075 777.004 483.437 777.508 482.682C778.02 481.918 778.379 481.042 778.584 480.055H782.05C781.789 481.517 781.314 482.827 780.625 483.982C779.935 485.138 779.078 486.121 778.053 486.931C777.028 487.733 775.877 488.343 774.6 488.762C773.333 489.182 771.977 489.391 770.533 489.391C768.092 489.391 765.921 488.795 764.02 487.602C762.119 486.41 760.623 484.714 759.533 482.515C758.443 480.315 757.898 477.706 757.898 474.687C757.898 471.668 758.443 469.059 759.533 466.86C760.623 464.661 762.119 462.965 764.02 461.772C765.921 460.58 768.092 459.983 770.533 459.983C771.977 459.983 773.333 460.193 774.6 460.612C775.877 461.031 777.028 461.646 778.053 462.457C779.078 463.259 779.935 464.237 780.625 465.392C781.314 466.539 781.789 467.848 782.05 469.32ZM792.368 489H788.734L799.245 460.375H802.823L813.334 489H809.7L801.146 464.903H800.922L792.368 489ZM793.71 477.818H808.358V480.893H793.71V477.818ZM830.169 489H821.335V460.375H830.56C833.337 460.375 835.713 460.948 837.689 462.094C839.664 463.231 841.178 464.866 842.231 467C843.284 469.124 843.811 471.668 843.811 474.631C843.811 477.613 843.28 480.18 842.217 482.333C841.155 484.476 839.608 486.125 837.577 487.281C835.545 488.427 833.076 489 830.169 489ZM824.802 485.925H829.945C832.312 485.925 834.274 485.468 835.83 484.555C837.386 483.642 838.546 482.342 839.31 480.656C840.074 478.969 840.456 476.961 840.456 474.631C840.456 472.32 840.079 470.331 839.324 468.663C838.569 466.986 837.442 465.7 835.941 464.805C834.441 463.901 832.573 463.45 830.337 463.45H824.802V485.925ZM853.168 489V460.375H870.444V463.45H856.634V473.122H869.549V476.197H856.634V485.925H870.667V489H853.168ZM880.234 460.375H884.371L894.099 484.136H894.435L904.163 460.375H908.3V489H905.057V467.251H904.778L895.832 489H892.702L883.756 467.251H883.477V489H880.234V460.375ZM922.259 460.375V489H918.793V460.375H922.259ZM933.926 489H930.292L940.803 460.375H944.381L954.892 489H951.258L942.704 464.903H942.48L933.926 489ZM935.268 477.818H949.916V480.893H935.268V477.818ZM685.466 537V508.375H702.742V511.45H688.933V521.122H701.848V524.197H688.933V533.925H702.966V537H685.466ZM735.567 517.32H732.101C731.896 516.323 731.537 515.447 731.024 514.692C730.521 513.937 729.906 513.304 729.179 512.791C728.462 512.27 727.665 511.878 726.789 511.617C725.913 511.356 725 511.226 724.05 511.226C722.317 511.226 720.746 511.664 719.339 512.54C717.942 513.416 716.828 514.706 715.999 516.411C715.179 518.117 714.769 520.209 714.769 522.687C714.769 525.166 715.179 527.258 715.999 528.963C716.828 530.668 717.942 531.959 719.339 532.835C720.746 533.711 722.317 534.149 724.05 534.149C725 534.149 725.913 534.018 726.789 533.757C727.665 533.496 728.462 533.11 729.179 532.597C729.906 532.075 730.521 531.437 731.024 530.682C731.537 529.918 731.896 529.042 732.101 528.055H735.567C735.306 529.517 734.831 530.827 734.141 531.982C733.452 533.138 732.595 534.121 731.57 534.931C730.545 535.733 729.394 536.343 728.117 536.762C726.85 537.182 725.494 537.391 724.05 537.391C721.608 537.391 719.437 536.795 717.536 535.602C715.635 534.41 714.14 532.714 713.05 530.515C711.959 528.315 711.414 525.706 711.414 522.687C711.414 519.668 711.959 517.059 713.05 514.86C714.14 512.661 715.635 510.965 717.536 509.772C719.437 508.58 721.608 507.983 724.05 507.983C725.494 507.983 726.85 508.193 728.117 508.612C729.394 509.031 730.545 509.646 731.57 510.457C732.595 511.259 733.452 512.237 734.141 513.392C734.831 514.539 735.306 515.848 735.567 517.32ZM768.864 522.687C768.864 525.706 768.318 528.315 767.228 530.515C766.138 532.714 764.642 534.41 762.742 535.602C760.841 536.795 758.669 537.391 756.228 537.391C753.787 537.391 751.616 536.795 749.715 535.602C747.814 534.41 746.318 532.714 745.228 530.515C744.138 528.315 743.593 525.706 743.593 522.687C743.593 519.668 744.138 517.059 745.228 514.86C746.318 512.661 747.814 510.965 749.715 509.772C751.616 508.58 753.787 507.983 756.228 507.983C758.669 507.983 760.841 508.58 762.742 509.772C764.642 510.965 766.138 512.661 767.228 514.86C768.318 517.059 768.864 519.668 768.864 522.687ZM765.509 522.687C765.509 520.209 765.094 518.117 764.265 516.411C763.445 514.706 762.332 513.416 760.924 512.54C759.527 511.664 757.961 511.226 756.228 511.226C754.495 511.226 752.925 511.664 751.518 512.54C750.12 513.416 749.007 514.706 748.177 516.411C747.357 518.117 746.947 520.209 746.947 522.687C746.947 525.166 747.357 527.258 748.177 528.963C749.007 530.668 750.12 531.959 751.518 532.835C752.925 533.711 754.495 534.149 756.228 534.149C757.961 534.149 759.527 533.711 760.924 532.835C762.332 531.959 763.445 530.668 764.265 528.963C765.094 527.258 765.509 525.166 765.509 522.687ZM778.235 537V508.375H781.701V533.925H795.007V537H778.235ZM826.955 522.687C826.955 525.706 826.41 528.315 825.32 530.515C824.229 532.714 822.734 534.41 820.833 535.602C818.932 536.795 816.761 537.391 814.319 537.391C811.878 537.391 809.707 536.795 807.806 535.602C805.905 534.41 804.41 532.714 803.319 530.515C802.229 528.315 801.684 525.706 801.684 522.687C801.684 519.668 802.229 517.059 803.319 514.86C804.41 512.661 805.905 510.965 807.806 509.772C809.707 508.58 811.878 507.983 814.319 507.983C816.761 507.983 818.932 508.58 820.833 509.772C822.734 510.965 824.229 512.661 825.32 514.86C826.41 517.059 826.955 519.668 826.955 522.687ZM823.6 522.687C823.6 520.209 823.186 518.117 822.356 516.411C821.536 514.706 820.423 513.416 819.016 512.54C817.618 511.664 816.053 511.226 814.319 511.226C812.586 511.226 811.016 511.664 809.609 512.54C808.211 513.416 807.098 514.706 806.269 516.411C805.449 518.117 805.039 520.209 805.039 522.687C805.039 525.166 805.449 527.258 806.269 528.963C807.098 530.668 808.211 531.959 809.609 532.835C811.016 533.711 812.586 534.149 814.319 534.149C816.053 534.149 817.618 533.711 819.016 532.835C820.423 531.959 821.536 530.668 822.356 528.963C823.186 527.258 823.6 525.166 823.6 522.687ZM812.81 505.467L816.22 498.982H820.078L815.717 505.467H812.81ZM855.894 517.32C855.587 516.379 855.181 515.536 854.678 514.79C854.184 514.035 853.592 513.392 852.903 512.861C852.223 512.33 851.449 511.925 850.583 511.645C849.716 511.366 848.766 511.226 847.731 511.226C846.035 511.226 844.493 511.664 843.105 512.54C841.716 513.416 840.612 514.706 839.792 516.411C838.972 518.117 838.562 520.209 838.562 522.687C838.562 525.166 838.977 527.258 839.806 528.963C840.636 530.668 841.758 531.959 843.175 532.835C844.591 533.711 846.184 534.149 847.955 534.149C849.595 534.149 851.039 533.799 852.288 533.1C853.546 532.392 854.524 531.395 855.223 530.109C855.931 528.814 856.285 527.29 856.285 525.539L857.348 525.762H848.738V522.687H859.64V525.762C859.64 528.12 859.137 530.17 858.13 531.912C857.133 533.655 855.754 535.006 853.993 535.966C852.241 536.916 850.229 537.391 847.955 537.391C845.42 537.391 843.193 536.795 841.274 535.602C839.364 534.41 837.873 532.714 836.801 530.515C835.739 528.315 835.208 525.706 835.208 522.687C835.208 520.423 835.511 518.387 836.116 516.579C836.731 514.762 837.598 513.215 838.716 511.939C839.834 510.662 841.157 509.684 842.686 509.004C844.214 508.323 845.896 507.983 847.731 507.983C849.241 507.983 850.648 508.211 851.952 508.668C853.266 509.115 854.436 509.754 855.461 510.583C856.495 511.403 857.357 512.386 858.047 513.532C858.736 514.669 859.211 515.932 859.472 517.32H855.894ZM872.586 508.375V537H869.119V508.375H872.586ZM906.113 517.32H902.646C902.441 516.323 902.083 515.447 901.57 514.692C901.067 513.937 900.452 513.304 899.725 512.791C899.008 512.27 898.211 511.878 897.335 511.617C896.459 511.356 895.546 511.226 894.595 511.226C892.862 511.226 891.292 511.664 889.885 512.54C888.487 513.416 887.374 514.706 886.545 516.411C885.725 518.117 885.315 520.209 885.315 522.687C885.315 525.166 885.725 527.258 886.545 528.963C887.374 530.668 888.487 531.959 889.885 532.835C891.292 533.711 892.862 534.149 894.595 534.149C895.546 534.149 896.459 534.018 897.335 533.757C898.211 533.496 899.008 533.11 899.725 532.597C900.452 532.075 901.067 531.437 901.57 530.682C902.083 529.918 902.441 529.042 902.646 528.055H906.113C905.852 529.517 905.377 530.827 904.687 531.982C903.997 533.138 903.14 534.121 902.115 534.931C901.09 535.733 899.939 536.343 898.663 536.762C897.396 537.182 896.04 537.391 894.595 537.391C892.154 537.391 889.983 536.795 888.082 535.602C886.181 534.41 884.686 532.714 883.595 530.515C882.505 528.315 881.96 525.706 881.96 522.687C881.96 519.668 882.505 517.059 883.595 514.86C884.686 512.661 886.181 510.965 888.082 509.772C889.983 508.58 892.154 507.983 894.595 507.983C896.04 507.983 897.396 508.193 898.663 508.612C899.939 509.031 901.09 509.646 902.115 510.457C903.14 511.259 903.997 512.237 904.687 513.392C905.377 514.539 905.852 515.848 906.113 517.32ZM916.431 537H912.797L923.307 508.375H926.886L937.397 537H933.762L925.208 512.903H924.985L916.431 537ZM917.772 525.818H932.421V528.893H917.772V525.818Z" fill="white"/>
<path d="M686.64 489V490.5H687.7L688.054 489.502L686.64 489ZM683.006 489L681.598 488.483L680.858 490.5H683.006V489ZM693.517 460.375V458.875H692.47L692.109 459.858L693.517 460.375ZM697.095 460.375L698.504 459.858L698.143 458.875H697.095V460.375ZM707.606 489V490.5H709.755L709.014 488.483L707.606 489ZM703.972 489L702.559 489.502L702.913 490.5H703.972V489ZM695.418 464.903L696.832 464.401L696.477 463.403H695.418V464.903ZM695.195 464.903V463.403H694.135L693.781 464.401L695.195 464.903ZM687.982 477.818V476.318H686.482V477.818H687.982ZM702.63 477.818H704.13V476.318H702.63V477.818ZM702.63 480.893V482.393H704.13V480.893H702.63ZM687.982 480.893H686.482V482.393H687.982V480.893ZM686.64 487.5H683.006V490.5H686.64V487.5ZM684.414 489.517L694.925 460.892L692.109 459.858L681.598 488.483L684.414 489.517ZM693.517 461.875H697.095V458.875H693.517V461.875ZM695.687 460.892L706.198 489.517L709.014 488.483L698.504 459.858L695.687 460.892ZM707.606 487.5H703.972V490.5H707.606V487.5ZM705.386 488.498L696.832 464.401L694.005 465.405L702.559 489.502L705.386 488.498ZM695.418 463.403H695.195V466.403H695.418V463.403ZM693.781 464.401L685.227 488.498L688.054 489.502L696.608 465.405L693.781 464.401ZM687.982 479.318H702.63V476.318H687.982V479.318ZM701.13 477.818V480.893H704.13V477.818H701.13ZM702.63 479.393H687.982V482.393H702.63V479.393ZM689.482 480.893V477.818H686.482V480.893H689.482ZM731.394 489V490.5H732.453L732.808 489.502L731.394 489ZM727.76 489L726.352 488.483L725.611 490.5H727.76V489ZM738.271 460.375V458.875H737.224L736.863 459.858L738.271 460.375ZM741.849 460.375L743.257 459.858L742.896 458.875H741.849V460.375ZM752.36 489V490.5H754.509L753.768 488.483L752.36 489ZM748.726 489L747.312 489.502L747.667 490.5H748.726V489ZM740.172 464.903L741.585 464.401L741.231 463.403H740.172V464.903ZM739.948 464.903V463.403H738.889L738.535 464.401L739.948 464.903ZM732.736 477.818V476.318H731.236V477.818H732.736ZM747.384 477.818H748.884V476.318H747.384V477.818ZM747.384 480.893V482.393H748.884V480.893H747.384ZM732.736 480.893H731.236V482.393H732.736V480.893ZM731.394 487.5H727.76V490.5H731.394V487.5ZM729.168 489.517L739.679 460.892L736.863 459.858L726.352 488.483L729.168 489.517ZM738.271 461.875H741.849V458.875H738.271V461.875ZM740.441 460.892L750.952 489.517L753.768 488.483L743.257 459.858L740.441 460.892ZM752.36 487.5H748.726V490.5H752.36V487.5ZM750.139 488.498L741.585 464.401L738.758 465.405L747.312 489.502L750.139 488.498ZM740.172 463.403H739.948V466.403H740.172V463.403ZM738.535 464.401L729.98 488.498L732.808 489.502L741.362 465.405L738.535 464.401ZM732.736 479.318H747.384V476.318H732.736V479.318ZM745.884 477.818V480.893H748.884V477.818H745.884ZM747.384 479.393H732.736V482.393H747.384V479.393ZM734.236 480.893V477.818H731.236V480.893H734.236ZM782.05 469.32V470.82H783.839L783.527 469.058L782.05 469.32ZM778.584 469.32L777.115 469.622L777.361 470.82H778.584V469.32ZM777.508 466.692L776.26 467.524L776.267 467.535L777.508 466.692ZM775.663 464.791L774.78 466.004L774.789 466.011L774.798 466.017L775.663 464.791ZM773.273 463.617L772.844 465.055L773.273 463.617ZM765.823 464.54L765.03 463.266L765.026 463.269L765.823 464.54ZM762.482 468.411L761.133 467.755L761.13 467.761L762.482 468.411ZM762.482 480.963L761.13 481.613L761.133 481.619L762.482 480.963ZM765.823 484.835L765.026 486.106L765.03 486.108L765.823 484.835ZM773.273 485.757L772.844 484.32L773.273 485.757ZM775.663 484.597L776.535 485.818L776.537 485.816L775.663 484.597ZM777.508 482.682L776.262 481.847L776.26 481.85L777.508 482.682ZM778.584 480.055V478.555H777.363L777.115 479.75L778.584 480.055ZM782.05 480.055L783.527 480.318L783.841 478.555H782.05V480.055ZM780.625 483.982L779.337 483.213H779.337L780.625 483.982ZM778.053 486.931L778.977 488.113L778.983 488.108L778.053 486.931ZM774.6 488.762L774.132 487.337L774.129 487.338L774.6 488.762ZM764.02 487.602L763.222 488.873L764.02 487.602ZM759.533 482.515L760.877 481.848L759.533 482.515ZM759.533 466.86L758.189 466.194L759.533 466.86ZM774.6 460.612L774.129 462.036L774.132 462.037L774.6 460.612ZM778.053 462.457L777.122 463.634L777.129 463.639L778.053 462.457ZM780.625 465.392L779.337 466.161L779.339 466.166L780.625 465.392ZM782.05 467.82H778.584V470.82H782.05V467.82ZM780.053 469.018C779.813 467.85 779.384 466.786 778.749 465.85L776.267 467.535C776.656 468.108 776.945 468.796 777.115 469.622L780.053 469.018ZM778.756 465.86C778.152 464.955 777.408 464.187 776.527 463.565L774.798 466.017C775.371 466.421 775.857 466.92 776.26 467.524L778.756 465.86ZM776.545 463.578C775.686 462.953 774.735 462.488 773.701 462.18L772.844 465.055C773.562 465.269 774.205 465.586 774.78 466.004L776.545 463.578ZM773.701 462.18C772.68 461.876 771.623 461.726 770.533 461.726V464.726C771.344 464.726 772.113 464.837 772.844 465.055L773.701 462.18ZM770.533 461.726C768.533 461.726 766.686 462.235 765.03 463.266L766.615 465.813C767.773 465.092 769.067 464.726 770.533 464.726V461.726ZM765.026 463.269C763.356 464.315 762.067 465.836 761.133 467.755L763.831 469.068C764.556 467.576 765.494 466.516 766.619 465.811L765.026 463.269ZM761.13 467.761C760.187 469.722 759.752 472.05 759.752 474.687H762.752C762.752 472.367 763.137 470.511 763.834 469.062L761.13 467.761ZM759.752 474.687C759.752 477.324 760.187 479.652 761.13 481.613L763.834 480.313C763.137 478.863 762.752 477.008 762.752 474.687H759.752ZM761.133 481.619C762.067 483.538 763.356 485.059 765.026 486.106L766.619 483.564C765.494 482.858 764.556 481.798 763.831 480.307L761.133 481.619ZM765.03 486.108C766.686 487.139 768.533 487.649 770.533 487.649V484.649C769.067 484.649 767.773 484.282 766.615 483.561L765.03 486.108ZM770.533 487.649C771.623 487.649 772.68 487.499 773.701 487.195L772.844 484.32C772.113 484.538 771.344 484.649 770.533 484.649V487.649ZM773.701 487.195C774.73 486.888 775.677 486.43 776.535 485.818L774.791 483.377C774.213 483.789 773.567 484.104 772.844 484.32L773.701 487.195ZM776.537 485.816C777.413 485.187 778.154 484.417 778.756 483.514L776.26 481.85C775.855 482.457 775.366 482.964 774.788 483.379L776.537 485.816ZM778.753 483.518C779.384 482.578 779.812 481.518 780.053 480.359L777.115 479.75C776.946 480.566 776.657 481.258 776.262 481.847L778.753 483.518ZM778.584 481.555H782.05V478.555H778.584V481.555ZM780.574 479.791C780.341 481.094 779.924 482.229 779.337 483.213L781.913 484.751C782.704 483.424 783.238 481.941 783.527 480.318L780.574 479.791ZM779.337 483.213C778.738 484.217 778 485.061 777.122 485.755L778.983 488.108C780.156 487.181 781.133 486.058 781.913 484.751L779.337 483.213ZM777.129 485.75C776.245 486.441 775.25 486.97 774.132 487.337L775.069 490.187C776.504 489.716 777.811 489.025 778.977 488.113L777.129 485.75ZM774.129 487.338C773.026 487.703 771.83 487.891 770.533 487.891V490.891C772.124 490.891 773.64 490.66 775.072 490.186L774.129 487.338ZM770.533 487.891C768.348 487.891 766.458 487.361 764.817 486.332L763.222 488.873C765.383 490.229 767.835 490.891 770.533 490.891V487.891ZM764.817 486.332C763.172 485.3 761.856 483.823 760.877 481.848L758.189 483.181C759.39 485.604 761.065 487.519 763.222 488.873L764.817 486.332ZM760.877 481.848C759.91 479.898 759.398 477.527 759.398 474.687H756.398C756.398 477.885 756.975 480.732 758.189 483.181L760.877 481.848ZM759.398 474.687C759.398 471.847 759.91 469.476 760.877 467.526L758.189 466.194C756.975 468.642 756.398 471.489 756.398 474.687H759.398ZM760.877 467.526C761.856 465.551 763.172 464.075 764.817 463.043L763.222 460.502C761.065 461.855 759.39 463.771 758.189 466.194L760.877 467.526ZM764.817 463.043C766.458 462.013 768.348 461.483 770.533 461.483V458.483C767.835 458.483 765.383 459.146 763.222 460.502L764.817 463.043ZM770.533 461.483C771.83 461.483 773.026 461.671 774.129 462.036L775.072 459.188C773.64 458.715 772.124 458.483 770.533 458.483V461.483ZM774.132 462.037C775.246 462.403 776.24 462.935 777.122 463.634L778.983 461.281C777.816 460.357 776.508 459.66 775.069 459.187L774.132 462.037ZM777.129 463.639C778.003 464.322 778.739 465.159 779.337 466.161L781.913 464.624C781.132 463.315 780.153 462.195 778.977 461.275L777.129 463.639ZM779.339 466.166C779.924 467.137 780.341 468.269 780.573 469.582L783.527 469.058C783.238 467.426 782.705 465.94 781.91 464.619L779.339 466.166ZM792.368 489V490.5H793.427L793.782 489.502L792.368 489ZM788.734 489L787.326 488.483L786.585 490.5H788.734V489ZM799.245 460.375V458.875H798.198L797.837 459.858L799.245 460.375ZM802.823 460.375L804.231 459.858L803.87 458.875H802.823V460.375ZM813.334 489V490.5H815.483L814.742 488.483L813.334 489ZM809.7 489L808.286 489.502L808.641 490.5H809.7V489ZM801.146 464.903L802.559 464.401L802.205 463.403H801.146V464.903ZM800.922 464.903V463.403H799.863L799.509 464.401L800.922 464.903ZM793.71 477.818V476.318H792.21V477.818H793.71ZM808.358 477.818H809.858V476.318H808.358V477.818ZM808.358 480.893V482.393H809.858V480.893H808.358ZM793.71 480.893H792.21V482.393H793.71V480.893ZM792.368 487.5H788.734V490.5H792.368V487.5ZM790.142 489.517L800.653 460.892L797.837 459.858L787.326 488.483L790.142 489.517ZM799.245 461.875H802.823V458.875H799.245V461.875ZM801.415 460.892L811.926 489.517L814.742 488.483L804.231 459.858L801.415 460.892ZM813.334 487.5H809.7V490.5H813.334V487.5ZM811.114 488.498L802.559 464.401L799.732 465.405L808.286 489.502L811.114 488.498ZM801.146 463.403H800.922V466.403H801.146V463.403ZM799.509 464.401L790.955 488.498L793.782 489.502L802.336 465.405L799.509 464.401ZM793.71 479.318H808.358V476.318H793.71V479.318ZM806.858 477.818V480.893H809.858V477.818H806.858ZM808.358 479.393H793.71V482.393H808.358V479.393ZM795.21 480.893V477.818H792.21V480.893H795.21ZM821.335 489H819.835V490.5H821.335V489ZM821.335 460.375V458.875H819.835V460.375H821.335ZM837.689 462.094L836.936 463.391L836.94 463.394L837.689 462.094ZM842.231 467L840.886 467.664L840.887 467.666L842.231 467ZM842.217 482.333L843.561 482.999L843.562 482.997L842.217 482.333ZM837.577 487.281L838.314 488.587L838.318 488.585L837.577 487.281ZM824.802 485.925H823.302V487.425H824.802V485.925ZM835.83 484.555L835.07 483.262L835.83 484.555ZM839.324 468.663L837.956 469.279L837.957 469.281L839.324 468.663ZM835.941 464.805L835.167 466.09L835.173 466.094L835.941 464.805ZM824.802 463.45V461.95H823.302V463.45H824.802ZM830.169 487.5H821.335V490.5H830.169V487.5ZM822.835 489V460.375H819.835V489H822.835ZM821.335 461.875H830.56V458.875H821.335V461.875ZM830.56 461.875C833.13 461.875 835.234 462.404 836.936 463.391L838.441 460.796C836.193 459.492 833.545 458.875 830.56 458.875V461.875ZM836.94 463.394C838.647 464.376 839.959 465.784 840.886 467.664L843.576 466.336C842.398 463.948 840.682 462.085 838.437 460.794L836.94 463.394ZM840.887 467.666C841.815 469.538 842.311 471.843 842.311 474.631H845.311C845.311 471.493 844.753 468.71 843.575 466.334L840.887 467.666ZM842.311 474.631C842.311 477.438 841.811 479.767 840.872 481.669L843.562 482.997C844.748 480.594 845.311 477.789 845.311 474.631H842.311ZM840.873 481.667C839.94 483.549 838.6 484.973 836.835 485.977L838.318 488.585C840.616 487.278 842.37 485.403 843.561 482.999L840.873 481.667ZM836.84 485.974C835.082 486.966 832.881 487.5 830.169 487.5V490.5C833.272 490.5 836.009 489.888 838.314 488.587L836.84 485.974ZM824.802 487.425H829.945V484.425H824.802V487.425ZM829.945 487.425C832.498 487.425 834.741 486.933 836.589 485.849L835.07 483.262C833.806 484.004 832.126 484.425 829.945 484.425V487.425ZM836.589 485.849C838.42 484.775 839.788 483.235 840.676 481.275L837.944 480.037C837.304 481.449 836.352 482.509 835.07 483.262L836.589 485.849ZM840.676 481.275C841.548 479.35 841.956 477.121 841.956 474.631H838.956C838.956 476.801 838.6 478.588 837.944 480.037L840.676 481.275ZM841.956 474.631C841.956 472.161 841.553 469.951 840.691 468.045L837.957 469.281C838.604 470.711 838.956 472.48 838.956 474.631H841.956ZM840.692 468.048C839.818 466.106 838.489 464.578 836.71 463.517L835.173 466.094C836.395 466.822 837.32 467.866 837.956 469.279L840.692 468.048ZM836.716 463.521C834.925 462.442 832.771 461.95 830.337 461.95V464.95C832.375 464.95 833.957 465.361 835.167 466.09L836.716 463.521ZM830.337 461.95H824.802V464.95H830.337V461.95ZM823.302 463.45V485.925H826.302V463.45H823.302ZM853.168 489H851.668V490.5H853.168V489ZM853.168 460.375V458.875H851.668V460.375H853.168ZM870.444 460.375H871.944V458.875H870.444V460.375ZM870.444 463.45V464.95H871.944V463.45H870.444ZM856.634 463.45V461.95H855.134V463.45H856.634ZM856.634 473.122H855.134V474.622H856.634V473.122ZM869.549 473.122H871.049V471.622H869.549V473.122ZM869.549 476.197V477.697H871.049V476.197H869.549ZM856.634 476.197V474.697H855.134V476.197H856.634ZM856.634 485.925H855.134V487.425H856.634V485.925ZM870.667 485.925H872.167V484.425H870.667V485.925ZM870.667 489V490.5H872.167V489H870.667ZM854.668 489V460.375H851.668V489H854.668ZM853.168 461.875H870.444V458.875H853.168V461.875ZM868.944 460.375V463.45H871.944V460.375H868.944ZM870.444 461.95H856.634V464.95H870.444V461.95ZM855.134 463.45V473.122H858.134V463.45H855.134ZM856.634 474.622H869.549V471.622H856.634V474.622ZM868.049 473.122V476.197H871.049V473.122H868.049ZM869.549 474.697H856.634V477.697H869.549V474.697ZM855.134 476.197V485.925H858.134V476.197H855.134ZM856.634 487.425H870.667V484.425H856.634V487.425ZM869.167 485.925V489H872.167V485.925H869.167ZM870.667 487.5H853.168V490.5H870.667V487.5ZM880.234 460.375V458.875H878.734V460.375H880.234ZM884.371 460.375L885.759 459.806L885.378 458.875H884.371V460.375ZM894.099 484.136L892.711 484.704L893.093 485.636H894.099V484.136ZM894.435 484.136V485.636H895.441L895.823 484.704L894.435 484.136ZM904.163 460.375V458.875H903.156L902.775 459.806L904.163 460.375ZM908.3 460.375H909.8V458.875H908.3V460.375ZM908.3 489V490.5H909.8V489H908.3ZM905.057 489H903.557V490.5H905.057V489ZM905.057 467.251H906.557V465.751H905.057V467.251ZM904.778 467.251V465.751H903.773L903.391 466.681L904.778 467.251ZM895.832 489V490.5H896.837L897.22 489.571L895.832 489ZM892.702 489L891.314 489.571L891.697 490.5H892.702V489ZM883.756 467.251L885.143 466.681L884.761 465.751H883.756V467.251ZM883.477 467.251V465.751H881.977V467.251H883.477ZM883.477 489V490.5H884.977V489H883.477ZM880.234 489H878.734V490.5H880.234V489ZM880.234 461.875H884.371V458.875H880.234V461.875ZM882.983 460.943L892.711 484.704L895.487 483.568L885.759 459.806L882.983 460.943ZM894.099 485.636H894.435V482.636H894.099V485.636ZM895.823 484.704L905.551 460.943L902.775 459.806L893.047 483.568L895.823 484.704ZM904.163 461.875H908.3V458.875H904.163V461.875ZM906.8 460.375V489H909.8V460.375H906.8ZM908.3 487.5H905.057V490.5H908.3V487.5ZM906.557 489V467.251H903.557V489H906.557ZM905.057 465.751H904.778V468.751H905.057V465.751ZM903.391 466.681L894.445 488.429L897.22 489.571L906.165 467.822L903.391 466.681ZM895.832 487.5H892.702V490.5H895.832V487.5ZM894.089 488.429L885.143 466.681L882.369 467.822L891.314 489.571L894.089 488.429ZM883.756 465.751H883.477V468.751H883.756V465.751ZM881.977 467.251V489H884.977V467.251H881.977ZM883.477 487.5H880.234V490.5H883.477V487.5ZM881.734 489V460.375H878.734V489H881.734ZM922.259 460.375H923.759V458.875H922.259V460.375ZM922.259 489V490.5H923.759V489H922.259ZM918.793 489H917.293V490.5H918.793V489ZM918.793 460.375V458.875H917.293V460.375H918.793ZM920.759 460.375V489H923.759V460.375H920.759ZM922.259 487.5H918.793V490.5H922.259V487.5ZM920.293 489V460.375H917.293V489H920.293ZM918.793 461.875H922.259V458.875H918.793V461.875ZM933.926 489V490.5H934.985L935.339 489.502L933.926 489ZM930.292 489L928.884 488.483L928.143 490.5H930.292V489ZM940.803 460.375V458.875H939.755L939.395 459.858L940.803 460.375ZM944.381 460.375L945.789 459.858L945.428 458.875H944.381V460.375ZM954.892 489V490.5H957.04L956.3 488.483L954.892 489ZM951.258 489L949.844 489.502L950.198 490.5H951.258V489ZM942.704 464.903L944.117 464.401L943.763 463.403H942.704V464.903ZM942.48 464.903V463.403H941.421L941.066 464.401L942.48 464.903ZM935.268 477.818V476.318H933.768V477.818H935.268ZM949.916 477.818H951.416V476.318H949.916V477.818ZM949.916 480.893V482.393H951.416V480.893H949.916ZM935.268 480.893H933.768V482.393H935.268V480.893ZM933.926 487.5H930.292V490.5H933.926V487.5ZM931.7 489.517L942.211 460.892L939.395 459.858L928.884 488.483L931.7 489.517ZM940.803 461.875H944.381V458.875H940.803V461.875ZM942.973 460.892L953.484 489.517L956.3 488.483L945.789 459.858L942.973 460.892ZM954.892 487.5H951.258V490.5H954.892V487.5ZM952.671 488.498L944.117 464.401L941.29 465.405L949.844 489.502L952.671 488.498ZM942.704 463.403H942.48V466.403H942.704V463.403ZM941.066 464.401L932.512 488.498L935.339 489.502L943.893 465.405L941.066 464.401ZM935.268 479.318H949.916V476.318H935.268V479.318ZM948.416 477.818V480.893H951.416V477.818H948.416ZM949.916 479.393H935.268V482.393H949.916V479.393ZM936.768 480.893V477.818H933.768V480.893H936.768ZM685.466 537H683.966V538.5H685.466V537ZM685.466 508.375V506.875H683.966V508.375H685.466ZM702.742 508.375H704.242V506.875H702.742V508.375ZM702.742 511.45V512.95H704.242V511.45H702.742ZM688.933 511.45V509.95H687.433V511.45H688.933ZM688.933 521.122H687.433V522.622H688.933V521.122ZM701.848 521.122H703.348V519.622H701.848V521.122ZM701.848 524.197V525.697H703.348V524.197H701.848ZM688.933 524.197V522.697H687.433V524.197H688.933ZM688.933 533.925H687.433V535.425H688.933V533.925ZM702.966 533.925H704.466V532.425H702.966V533.925ZM702.966 537V538.5H704.466V537H702.966ZM686.966 537V508.375H683.966V537H686.966ZM685.466 509.875H702.742V506.875H685.466V509.875ZM701.242 508.375V511.45H704.242V508.375H701.242ZM702.742 509.95H688.933V512.95H702.742V509.95ZM687.433 511.45V521.122H690.433V511.45H687.433ZM688.933 522.622H701.848V519.622H688.933V522.622ZM700.348 521.122V524.197H703.348V521.122H700.348ZM701.848 522.697H688.933V525.697H701.848V522.697ZM687.433 524.197V533.925H690.433V524.197H687.433ZM688.933 535.425H702.966V532.425H688.933V535.425ZM701.466 533.925V537H704.466V533.925H701.466ZM702.966 535.5H685.466V538.5H702.966V535.5ZM735.567 517.32V518.82H737.356L737.044 517.058L735.567 517.32ZM732.101 517.32L730.631 517.622L730.878 518.82H732.101V517.32ZM731.024 514.692L729.776 515.524L729.783 515.535L731.024 514.692ZM729.179 512.791L728.297 514.004L728.306 514.011L728.315 514.017L729.179 512.791ZM726.789 511.617L726.361 513.055L726.789 511.617ZM719.339 512.54L718.547 511.266L718.543 511.269L719.339 512.54ZM715.999 516.411L714.65 515.755L714.647 515.761L715.999 516.411ZM715.999 528.963L714.647 529.613L714.65 529.619L715.999 528.963ZM719.339 532.835L718.543 534.106L718.547 534.108L719.339 532.835ZM726.789 533.757L726.361 532.32L726.789 533.757ZM729.179 532.597L730.051 533.818L730.054 533.816L729.179 532.597ZM731.024 530.682L729.779 529.847L729.776 529.85L731.024 530.682ZM732.101 528.055V526.555H730.88L730.632 527.75L732.101 528.055ZM735.567 528.055L737.044 528.318L737.358 526.555H735.567V528.055ZM734.141 531.982L732.853 531.213L734.141 531.982ZM731.57 534.931L732.493 536.113L732.5 536.108L731.57 534.931ZM728.117 536.762L727.649 535.337L727.646 535.338L728.117 536.762ZM717.536 535.602L716.739 536.873L717.536 535.602ZM713.05 530.515L714.394 529.848L713.05 530.515ZM713.05 514.86L711.706 514.194L713.05 514.86ZM728.117 508.612L727.646 510.036L727.649 510.037L728.117 508.612ZM731.57 510.457L730.639 511.634L730.646 511.639L731.57 510.457ZM734.141 513.392L732.853 514.161L732.856 514.166L734.141 513.392ZM735.567 515.82H732.101V518.82H735.567V515.82ZM733.57 517.018C733.33 515.85 732.901 514.786 732.265 513.85L729.783 515.535C730.173 516.108 730.462 516.796 730.631 517.622L733.57 517.018ZM732.273 513.86C731.669 512.955 730.925 512.187 730.044 511.565L728.315 514.017C728.888 514.421 729.374 514.92 729.776 515.524L732.273 513.86ZM730.062 511.578C729.203 510.953 728.251 510.488 727.218 510.18L726.361 513.055C727.079 513.269 727.721 513.586 728.297 514.004L730.062 511.578ZM727.218 510.18C726.197 509.876 725.139 509.726 724.05 509.726V512.726C724.861 512.726 725.63 512.837 726.361 513.055L727.218 510.18ZM724.05 509.726C722.05 509.726 720.203 510.235 718.547 511.266L720.132 513.813C721.29 513.092 722.583 512.726 724.05 512.726V509.726ZM718.543 511.269C716.873 512.315 715.583 513.836 714.65 515.755L717.348 517.068C718.073 515.576 719.01 514.516 720.136 513.811L718.543 511.269ZM714.647 515.761C713.704 517.722 713.269 520.05 713.269 522.687H716.269C716.269 520.367 716.654 518.511 717.351 517.062L714.647 515.761ZM713.269 522.687C713.269 525.324 713.704 527.652 714.647 529.613L717.351 528.313C716.654 526.863 716.269 525.008 716.269 522.687H713.269ZM714.65 529.619C715.583 531.538 716.873 533.059 718.543 534.106L720.136 531.564C719.01 530.858 718.073 529.798 717.348 528.307L714.65 529.619ZM718.547 534.108C720.203 535.139 722.05 535.649 724.05 535.649V532.649C722.583 532.649 721.29 532.282 720.132 531.561L718.547 534.108ZM724.05 535.649C725.139 535.649 726.197 535.499 727.218 535.195L726.361 532.32C725.63 532.538 724.861 532.649 724.05 532.649V535.649ZM727.218 535.195C728.246 534.888 729.194 534.43 730.051 533.818L728.308 531.377C727.73 531.789 727.084 532.104 726.361 532.32L727.218 535.195ZM730.054 533.816C730.93 533.187 731.671 532.417 732.273 531.514L729.776 529.85C729.372 530.457 728.883 530.964 728.305 531.379L730.054 533.816ZM732.27 531.518C732.901 530.578 733.329 529.518 733.569 528.359L730.632 527.75C730.463 528.566 730.173 529.258 729.779 529.847L732.27 531.518ZM732.101 529.555H735.567V526.555H732.101V529.555ZM734.09 527.791C733.858 529.094 733.441 530.229 732.853 531.213L735.429 532.751C736.221 531.424 736.754 529.941 737.044 528.318L734.09 527.791ZM732.853 531.213C732.254 532.217 731.517 533.061 730.639 533.755L732.5 536.108C733.672 535.181 734.649 534.058 735.429 532.751L732.853 531.213ZM730.646 533.75C729.762 534.441 728.766 534.97 727.649 535.337L728.585 538.187C730.021 537.716 731.327 537.025 732.493 536.113L730.646 533.75ZM727.646 535.338C726.543 535.703 725.347 535.891 724.05 535.891V538.891C725.641 538.891 727.157 538.66 728.588 538.186L727.646 535.338ZM724.05 535.891C721.865 535.891 719.975 535.361 718.334 534.332L716.739 536.873C718.9 538.229 721.352 538.891 724.05 538.891V535.891ZM718.334 534.332C716.689 533.3 715.373 531.823 714.394 529.848L711.706 531.181C712.907 533.604 714.582 535.519 716.739 536.873L718.334 534.332ZM714.394 529.848C713.427 527.898 712.914 525.527 712.914 522.687H709.914C709.914 525.885 710.492 528.732 711.706 531.181L714.394 529.848ZM712.914 522.687C712.914 519.847 713.427 517.476 714.394 515.526L711.706 514.194C710.492 516.642 709.914 519.489 709.914 522.687H712.914ZM714.394 515.526C715.373 513.551 716.689 512.075 718.334 511.043L716.739 508.502C714.582 509.855 712.907 511.771 711.706 514.194L714.394 515.526ZM718.334 511.043C719.975 510.013 721.865 509.483 724.05 509.483V506.483C721.352 506.483 718.9 507.146 716.739 508.502L718.334 511.043ZM724.05 509.483C725.347 509.483 726.543 509.671 727.646 510.036L728.588 507.188C727.157 506.715 725.641 506.483 724.05 506.483V509.483ZM727.649 510.037C728.763 510.403 729.756 510.935 730.639 511.634L732.5 509.281C731.333 508.357 730.025 507.66 728.585 507.187L727.649 510.037ZM730.646 511.639C731.52 512.322 732.255 513.159 732.853 514.161L735.429 512.624C734.648 511.315 733.669 510.195 732.493 509.275L730.646 511.639ZM732.856 514.166C733.44 515.137 733.857 516.269 734.09 517.582L737.044 517.058C736.755 515.426 736.221 513.94 735.427 512.619L732.856 514.166ZM767.228 530.515L765.884 529.848L767.228 530.515ZM762.742 535.602L763.539 536.873L762.742 535.602ZM749.715 535.602L748.917 536.873L749.715 535.602ZM745.228 530.515L746.572 529.848L745.228 530.515ZM745.228 514.86L743.884 514.194L745.228 514.86ZM762.742 509.772L763.539 508.502L762.742 509.772ZM767.228 514.86L765.884 515.526L767.228 514.86ZM764.265 516.411L762.913 517.062L762.916 517.068L764.265 516.411ZM760.924 512.54L760.128 513.811L760.132 513.813L760.924 512.54ZM751.518 512.54L750.725 511.266L750.721 511.269L751.518 512.54ZM748.177 516.411L746.828 515.755L746.825 515.761L748.177 516.411ZM748.177 528.963L746.825 529.613L746.828 529.619L748.177 528.963ZM751.518 532.835L750.721 534.106L750.725 534.108L751.518 532.835ZM760.924 532.835L760.132 531.561L760.128 531.564L760.924 532.835ZM764.265 528.963L762.916 528.307L762.913 528.313L764.265 528.963ZM767.364 522.687C767.364 525.527 766.851 527.898 765.884 529.848L768.572 531.181C769.786 528.732 770.364 525.885 770.364 522.687H767.364ZM765.884 529.848C764.905 531.823 763.589 533.3 761.944 534.332L763.539 536.873C765.696 535.519 767.371 533.604 768.572 531.181L765.884 529.848ZM761.944 534.332C760.303 535.361 758.413 535.891 756.228 535.891V538.891C758.926 538.891 761.378 538.229 763.539 536.873L761.944 534.332ZM756.228 535.891C754.043 535.891 752.153 535.361 750.512 534.332L748.917 536.873C751.078 538.229 753.53 538.891 756.228 538.891V535.891ZM750.512 534.332C748.867 533.3 747.551 531.823 746.572 529.848L743.884 531.181C745.085 533.604 746.76 535.519 748.917 536.873L750.512 534.332ZM746.572 529.848C745.605 527.898 745.093 525.527 745.093 522.687H742.093C742.093 525.885 742.67 528.732 743.884 531.181L746.572 529.848ZM745.093 522.687C745.093 519.847 745.605 517.476 746.572 515.526L743.884 514.194C742.67 516.642 742.093 519.489 742.093 522.687H745.093ZM746.572 515.526C747.551 513.551 748.867 512.075 750.512 511.043L748.917 508.502C746.76 509.855 745.085 511.771 743.884 514.194L746.572 515.526ZM750.512 511.043C752.153 510.013 754.043 509.483 756.228 509.483V506.483C753.53 506.483 751.078 507.146 748.917 508.502L750.512 511.043ZM756.228 509.483C758.413 509.483 760.303 510.013 761.944 511.043L763.539 508.502C761.378 507.146 758.926 506.483 756.228 506.483V509.483ZM761.944 511.043C763.589 512.075 764.905 513.551 765.884 515.526L768.572 514.194C767.371 511.771 765.696 509.855 763.539 508.502L761.944 511.043ZM765.884 515.526C766.851 517.476 767.364 519.847 767.364 522.687H770.364C770.364 519.489 769.786 516.642 768.572 514.194L765.884 515.526ZM767.009 522.687C767.009 520.048 766.568 517.718 765.614 515.755L762.916 517.068C763.62 518.516 764.009 520.369 764.009 522.687H767.009ZM765.617 515.761C764.691 513.837 763.399 512.313 761.717 511.266L760.132 513.813C761.264 514.518 762.199 515.576 762.913 517.062L765.617 515.761ZM761.721 511.269C760.072 510.235 758.228 509.726 756.228 509.726V512.726C757.695 512.726 758.981 513.092 760.128 513.811L761.721 511.269ZM756.228 509.726C754.228 509.726 752.381 510.235 750.725 511.266L752.311 513.813C753.469 513.092 754.762 512.726 756.228 512.726V509.726ZM750.721 511.269C749.051 512.315 747.762 513.836 746.828 515.755L749.526 517.068C750.251 515.576 751.189 514.516 752.314 513.811L750.721 511.269ZM746.825 515.761C745.883 517.722 745.447 520.05 745.447 522.687H748.447C748.447 520.367 748.832 518.511 749.529 517.062L746.825 515.761ZM745.447 522.687C745.447 525.324 745.883 527.652 746.825 529.613L749.529 528.313C748.832 526.863 748.447 525.008 748.447 522.687H745.447ZM746.828 529.619C747.762 531.538 749.051 533.059 750.721 534.106L752.314 531.564C751.189 530.858 750.251 529.798 749.526 528.307L746.828 529.619ZM750.725 534.108C752.381 535.139 754.228 535.649 756.228 535.649V532.649C754.762 532.649 753.469 532.282 752.311 531.561L750.725 534.108ZM756.228 535.649C758.228 535.649 760.072 535.139 761.721 534.106L760.128 531.564C758.981 532.282 757.695 532.649 756.228 532.649V535.649ZM761.717 534.108C763.399 533.061 764.691 531.538 765.617 529.613L762.913 528.313C762.199 529.799 761.264 530.856 760.132 531.561L761.717 534.108ZM765.614 529.619C766.568 527.657 767.009 525.326 767.009 522.687H764.009C764.009 525.006 763.62 526.859 762.916 528.307L765.614 529.619ZM778.235 537H776.735V538.5H778.235V537ZM778.235 508.375V506.875H776.735V508.375H778.235ZM781.701 508.375H783.201V506.875H781.701V508.375ZM781.701 533.925H780.201V535.425H781.701V533.925ZM795.007 533.925H796.507V532.425H795.007V533.925ZM795.007 537V538.5H796.507V537H795.007ZM779.735 537V508.375H776.735V537H779.735ZM778.235 509.875H781.701V506.875H778.235V509.875ZM780.201 508.375V533.925H783.201V508.375H780.201ZM781.701 535.425H795.007V532.425H781.701V535.425ZM793.507 533.925V537H796.507V533.925H793.507ZM795.007 535.5H778.235V538.5H795.007V535.5ZM825.32 530.515L823.976 529.848L825.32 530.515ZM820.833 535.602L821.63 536.873L820.833 535.602ZM807.806 535.602L807.009 536.873L807.806 535.602ZM803.319 530.515L804.663 529.848L803.319 530.515ZM803.319 514.86L801.975 514.194L803.319 514.86ZM820.833 509.772L821.63 508.502L820.833 509.772ZM825.32 514.86L823.976 515.526L825.32 514.86ZM822.356 516.411L821.005 517.062L821.007 517.068L822.356 516.411ZM819.016 512.54L818.219 513.811L818.223 513.813L819.016 512.54ZM809.609 512.54L808.816 511.266L808.813 511.269L809.609 512.54ZM806.269 516.411L804.92 515.755L804.917 515.761L806.269 516.411ZM806.269 528.963L804.917 529.613L804.92 529.619L806.269 528.963ZM809.609 532.835L808.813 534.106L808.816 534.108L809.609 532.835ZM819.016 532.835L818.223 531.561L818.219 531.564L819.016 532.835ZM822.356 528.963L821.007 528.307L821.005 528.313L822.356 528.963ZM812.81 505.467L811.482 504.769L810.326 506.967H812.81V505.467ZM816.22 498.982V497.482H815.314L814.893 498.284L816.22 498.982ZM820.078 498.982L821.323 499.819L822.894 497.482H820.078V498.982ZM815.717 505.467V506.967H816.516L816.962 506.304L815.717 505.467ZM825.455 522.687C825.455 525.527 824.942 527.898 823.976 529.848L826.664 531.181C827.877 528.732 828.455 525.885 828.455 522.687H825.455ZM823.976 529.848C822.997 531.823 821.68 533.3 820.036 534.332L821.63 536.873C823.787 535.519 825.462 533.604 826.664 531.181L823.976 529.848ZM820.036 534.332C818.395 535.361 816.505 535.891 814.319 535.891V538.891C817.017 538.891 819.469 538.229 821.63 536.873L820.036 534.332ZM814.319 535.891C812.134 535.891 810.244 535.361 808.603 534.332L807.009 536.873C809.17 538.229 811.622 538.891 814.319 538.891V535.891ZM808.603 534.332C806.959 533.3 805.642 531.823 804.663 529.848L801.975 531.181C803.177 533.604 804.852 535.519 807.009 536.873L808.603 534.332ZM804.663 529.848C803.697 527.898 803.184 525.527 803.184 522.687H800.184C800.184 525.885 800.762 528.732 801.975 531.181L804.663 529.848ZM803.184 522.687C803.184 519.847 803.697 517.476 804.663 515.526L801.975 514.194C800.762 516.642 800.184 519.489 800.184 522.687H803.184ZM804.663 515.526C805.642 513.551 806.959 512.075 808.603 511.043L807.009 508.502C804.852 509.855 803.177 511.771 801.975 514.194L804.663 515.526ZM808.603 511.043C810.244 510.013 812.134 509.483 814.319 509.483V506.483C811.622 506.483 809.17 507.146 807.009 508.502L808.603 511.043ZM814.319 509.483C816.505 509.483 818.395 510.013 820.036 511.043L821.63 508.502C819.469 507.146 817.017 506.483 814.319 506.483V509.483ZM820.036 511.043C821.68 512.075 822.997 513.551 823.976 515.526L826.664 514.194C825.462 511.771 823.787 509.855 821.63 508.502L820.036 511.043ZM823.976 515.526C824.942 517.476 825.455 519.847 825.455 522.687H828.455C828.455 519.489 827.877 516.642 826.664 514.194L823.976 515.526ZM825.1 522.687C825.1 520.048 824.66 517.718 823.705 515.755L821.007 517.068C821.712 518.516 822.1 520.369 822.1 522.687H825.1ZM823.708 515.761C822.783 513.837 821.49 512.313 819.809 511.266L818.223 513.813C819.356 514.518 820.29 515.576 821.005 517.062L823.708 515.761ZM819.812 511.269C818.164 510.235 816.319 509.726 814.319 509.726V512.726C815.786 512.726 817.073 513.092 818.219 513.811L819.812 511.269ZM814.319 509.726C812.32 509.726 810.473 510.235 808.816 511.266L810.402 513.813C811.56 513.092 812.853 512.726 814.319 512.726V509.726ZM808.813 511.269C807.143 512.315 805.853 513.836 804.92 515.755L807.618 517.068C808.343 515.576 809.28 514.516 810.406 513.811L808.813 511.269ZM804.917 515.761C803.974 517.722 803.539 520.05 803.539 522.687H806.539C806.539 520.367 806.923 518.511 807.62 517.062L804.917 515.761ZM803.539 522.687C803.539 525.324 803.974 527.652 804.917 529.613L807.62 528.313C806.923 526.863 806.539 525.008 806.539 522.687H803.539ZM804.92 529.619C805.853 531.538 807.143 533.059 808.813 534.106L810.406 531.564C809.28 530.858 808.343 529.798 807.618 528.307L804.92 529.619ZM808.816 534.108C810.473 535.139 812.32 535.649 814.319 535.649V532.649C812.853 532.649 811.56 532.282 810.402 531.561L808.816 534.108ZM814.319 535.649C816.319 535.649 818.164 535.139 819.812 534.106L818.219 531.564C817.073 532.282 815.786 532.649 814.319 532.649V535.649ZM819.809 534.108C821.49 533.061 822.783 531.538 823.708 529.613L821.005 528.313C820.29 529.799 819.356 530.856 818.223 531.561L819.809 534.108ZM823.705 529.619C824.66 527.657 825.1 525.326 825.1 522.687H822.1C822.1 525.006 821.712 526.859 821.007 528.307L823.705 529.619ZM814.138 506.165L817.548 499.68L814.893 498.284L811.482 504.769L814.138 506.165ZM816.22 500.482H820.078V497.482H816.22V500.482ZM818.833 498.145L814.472 504.63L816.962 506.304L821.323 499.819L818.833 498.145ZM815.717 503.967H812.81V506.967H815.717V503.967ZM855.894 517.32L854.468 517.786L854.806 518.82H855.894V517.32ZM854.678 514.79L853.423 515.611L853.429 515.62L853.435 515.629L854.678 514.79ZM852.903 512.861L851.98 514.044L851.988 514.05L852.903 512.861ZM850.583 511.645L851.043 510.218L850.583 511.645ZM839.792 516.411L841.144 517.062L839.792 516.411ZM839.806 528.963L838.457 529.619L839.806 528.963ZM843.175 532.835L842.386 534.111L843.175 532.835ZM852.288 533.1L853.021 534.409L853.024 534.407L852.288 533.1ZM855.223 530.109L853.907 529.39L853.905 529.393L855.223 530.109ZM856.285 525.539L856.594 524.071L854.785 523.69V525.539H856.285ZM857.348 525.762V527.262L857.657 524.294L857.348 525.762ZM848.738 525.762H847.238V527.262H848.738V525.762ZM848.738 522.687V521.187H847.238V522.687H848.738ZM859.64 522.687H861.14V521.187H859.64V522.687ZM858.13 531.912L856.831 531.162L856.828 531.167L858.13 531.912ZM853.993 535.966L854.708 537.284L854.711 537.283L853.993 535.966ZM841.274 535.602L840.479 536.875L840.482 536.876L841.274 535.602ZM836.801 530.515L835.45 531.167L835.453 531.172L836.801 530.515ZM836.116 516.579L834.695 516.098L834.694 516.103L836.116 516.579ZM838.716 511.939L839.844 512.927L838.716 511.939ZM842.686 509.004L842.076 507.633L842.686 509.004ZM851.952 508.668L851.457 510.084L851.469 510.088L851.952 508.668ZM855.461 510.583L854.517 511.749L854.523 511.754L854.529 511.758L855.461 510.583ZM858.047 513.532L856.761 514.305L856.764 514.31L858.047 513.532ZM859.472 517.32V518.82H861.28L860.946 517.043L859.472 517.32ZM857.32 516.854C856.973 515.794 856.51 514.823 855.921 513.951L853.435 515.629C853.853 516.248 854.2 516.964 854.468 517.786L857.32 516.854ZM855.933 513.969C855.351 513.079 854.646 512.31 853.818 511.673L851.988 514.05C852.539 514.475 853.018 514.992 853.423 515.611L855.933 513.969ZM853.826 511.679C853 511.034 852.068 510.548 851.043 510.218L850.122 513.073C850.831 513.301 851.446 513.627 851.98 514.044L853.826 511.679ZM851.043 510.218C850.009 509.884 848.901 509.726 847.731 509.726V512.726C848.63 512.726 849.423 512.847 850.122 513.073L851.043 510.218ZM847.731 509.726C845.762 509.726 843.941 510.239 842.304 511.271L843.905 513.808C845.046 513.089 846.309 512.726 847.731 512.726V509.726ZM842.304 511.271C840.643 512.319 839.363 513.842 838.44 515.761L841.144 517.062C841.861 515.571 842.79 514.512 843.905 513.808L842.304 511.271ZM838.44 515.761C837.498 517.722 837.062 520.05 837.062 522.687H840.062C840.062 520.367 840.447 518.511 841.144 517.062L838.44 515.761ZM837.062 522.687C837.062 525.326 837.503 527.657 838.457 529.619L841.155 528.307C840.451 526.859 840.062 525.006 840.062 522.687H837.062ZM838.457 529.619C839.393 531.543 840.696 533.065 842.386 534.111L843.964 531.559C842.821 530.852 841.878 529.793 841.155 528.307L838.457 529.619ZM842.386 534.111C844.054 535.142 845.924 535.649 847.955 535.649V532.649C846.445 532.649 845.128 532.279 843.964 531.559L842.386 534.111ZM847.955 535.649C849.814 535.649 851.517 535.251 853.021 534.409L851.555 531.791C850.561 532.348 849.376 532.649 847.955 532.649V535.649ZM853.024 534.407C854.531 533.559 855.71 532.355 856.541 530.825L853.905 529.393C853.339 530.435 852.561 531.225 851.552 531.793L853.024 534.407ZM856.539 530.829C857.389 529.275 857.785 527.495 857.785 525.539H854.785C854.785 527.086 854.474 528.353 853.907 529.39L856.539 530.829ZM855.976 527.006L857.039 527.23L857.657 524.294L856.594 524.071L855.976 527.006ZM857.348 524.262H848.738V527.262H857.348V524.262ZM850.238 525.762V522.687H847.238V525.762H850.238ZM848.738 524.187H859.64V521.187H848.738V524.187ZM858.14 522.687V525.762H861.14V522.687H858.14ZM858.14 525.762C858.14 527.902 857.685 529.684 856.831 531.162L859.429 532.662C860.588 530.655 861.14 528.338 861.14 525.762H858.14ZM856.828 531.167C855.969 532.669 854.792 533.822 853.275 534.649L854.711 537.283C856.716 536.19 858.297 534.641 859.432 532.657L856.828 531.167ZM853.278 534.647C851.775 535.463 850.014 535.891 847.955 535.891V538.891C850.443 538.891 852.708 538.37 854.708 537.284L853.278 534.647ZM847.955 535.891C845.665 535.891 843.719 535.356 842.065 534.328L840.482 536.876C842.667 538.234 845.176 538.891 847.955 538.891V535.891ZM842.068 534.33C840.417 533.299 839.109 531.826 838.15 529.857L835.453 531.172C836.636 533.601 838.31 535.52 840.479 536.875L842.068 534.33ZM838.152 529.862C837.208 527.909 836.708 525.533 836.708 522.687H833.708C833.708 525.88 834.269 528.722 835.45 531.167L838.152 529.862ZM836.708 522.687C836.708 520.555 836.993 518.684 837.538 517.056L834.694 516.103C834.028 518.09 833.708 520.291 833.708 522.687H836.708ZM837.537 517.06C838.097 515.406 838.872 514.037 839.844 512.927L837.588 510.95C836.324 512.393 835.365 514.119 834.695 516.098L837.537 517.06ZM839.844 512.927C840.822 511.811 841.969 510.964 843.296 510.374L842.076 507.633C840.346 508.403 838.847 509.513 837.588 510.95L839.844 512.927ZM843.296 510.374C844.614 509.787 846.085 509.483 847.731 509.483V506.483C845.706 506.483 843.814 506.859 842.076 507.633L843.296 510.374ZM847.731 509.483C849.088 509.483 850.326 509.688 851.457 510.084L852.448 507.252C850.97 506.735 849.394 506.483 847.731 506.483V509.483ZM851.469 510.088C852.625 510.481 853.637 511.037 854.517 511.749L856.404 509.417C855.235 508.471 853.908 507.749 852.436 507.248L851.469 510.088ZM854.529 511.758C855.42 512.465 856.163 513.311 856.761 514.305L859.332 512.759C858.551 511.461 857.57 510.341 856.393 509.408L854.529 511.758ZM856.764 514.31C857.354 515.283 857.768 516.375 857.998 517.597L860.946 517.043C860.654 515.489 860.118 514.055 859.329 512.754L856.764 514.31ZM859.472 515.82H855.894V518.82H859.472V515.82ZM872.586 508.375H874.086V506.875H872.586V508.375ZM872.586 537V538.5H874.086V537H872.586ZM869.119 537H867.619V538.5H869.119V537ZM869.119 508.375V506.875H867.619V508.375H869.119ZM871.086 508.375V537H874.086V508.375H871.086ZM872.586 535.5H869.119V538.5H872.586V535.5ZM870.619 537V508.375H867.619V537H870.619ZM869.119 509.875H872.586V506.875H869.119V509.875ZM906.113 517.32V518.82H907.902L907.59 517.058L906.113 517.32ZM902.646 517.32L901.177 517.622L901.423 518.82H902.646V517.32ZM901.57 514.692L900.322 515.524L900.329 515.535L901.57 514.692ZM899.725 512.791L898.843 514.004L898.852 514.011L898.861 514.017L899.725 512.791ZM897.335 511.617L896.907 513.055L897.335 511.617ZM889.885 512.54L889.092 511.266L889.089 511.269L889.885 512.54ZM886.545 516.411L885.196 515.755L885.193 515.761L886.545 516.411ZM886.545 528.963L885.193 529.613L885.196 529.619L886.545 528.963ZM889.885 532.835L889.089 534.106L889.092 534.108L889.885 532.835ZM897.335 533.757L896.907 532.32L897.335 533.757ZM899.725 532.597L900.597 533.818L900.6 533.816L899.725 532.597ZM901.57 530.682L900.324 529.847L900.322 529.85L901.57 530.682ZM902.646 528.055V526.555H901.426L901.178 527.75L902.646 528.055ZM906.113 528.055L907.589 528.318L907.904 526.555H906.113V528.055ZM904.687 531.982L903.399 531.213L904.687 531.982ZM902.115 534.931L903.039 536.113L903.046 536.108L902.115 534.931ZM898.663 536.762L898.195 535.337L898.192 535.338L898.663 536.762ZM888.082 535.602L887.285 536.873L888.082 535.602ZM883.595 530.515L884.939 529.848L883.595 530.515ZM883.595 514.86L882.251 514.194L883.595 514.86ZM898.663 508.612L898.192 510.036L898.195 510.037L898.663 508.612ZM902.115 510.457L901.185 511.634L901.191 511.639L902.115 510.457ZM904.687 513.392L903.399 514.161L903.402 514.166L904.687 513.392ZM906.113 515.82H902.646V518.82H906.113V515.82ZM904.116 517.018C903.875 515.85 903.447 514.786 902.811 513.85L900.329 515.535C900.719 516.108 901.007 516.796 901.177 517.622L904.116 517.018ZM902.818 513.86C902.215 512.955 901.47 512.187 900.59 511.565L898.861 514.017C899.433 514.421 899.919 514.92 900.322 515.524L902.818 513.86ZM900.607 511.578C899.748 510.953 898.797 510.488 897.763 510.18L896.907 513.055C897.625 513.269 898.267 513.586 898.843 514.004L900.607 511.578ZM897.763 510.18C896.743 509.876 895.685 509.726 894.595 509.726V512.726C895.407 512.726 896.175 512.837 896.907 513.055L897.763 510.18ZM894.595 509.726C892.595 509.726 890.748 510.235 889.092 511.266L890.678 513.813C891.836 513.092 893.129 512.726 894.595 512.726V509.726ZM889.089 511.269C887.419 512.315 886.129 513.836 885.196 515.755L887.893 517.068C888.619 515.576 889.556 514.516 890.682 513.811L889.089 511.269ZM885.193 515.761C884.25 517.722 883.815 520.05 883.815 522.687H886.815C886.815 520.367 887.199 518.511 887.896 517.062L885.193 515.761ZM883.815 522.687C883.815 525.324 884.25 527.652 885.193 529.613L887.896 528.313C887.199 526.863 886.815 525.008 886.815 522.687H883.815ZM885.196 529.619C886.129 531.538 887.419 533.059 889.089 534.106L890.682 531.564C889.556 530.858 888.619 529.798 887.893 528.307L885.196 529.619ZM889.092 534.108C890.748 535.139 892.595 535.649 894.595 535.649V532.649C893.129 532.649 891.836 532.282 890.678 531.561L889.092 534.108ZM894.595 535.649C895.685 535.649 896.743 535.499 897.763 535.195L896.907 532.32C896.175 532.538 895.407 532.649 894.595 532.649V535.649ZM897.763 535.195C898.792 534.888 899.74 534.43 900.597 533.818L898.853 531.377C898.276 531.789 897.63 532.104 896.907 532.32L897.763 535.195ZM900.6 533.816C901.475 533.187 902.216 532.417 902.818 531.514L900.322 529.85C899.918 530.457 899.428 530.964 898.85 531.379L900.6 533.816ZM902.816 531.518C903.446 530.578 903.874 529.518 904.115 528.359L901.178 527.75C901.008 528.566 900.719 529.258 900.324 529.847L902.816 531.518ZM902.646 529.555H906.113V526.555H902.646V529.555ZM904.636 527.791C904.404 529.094 903.986 530.229 903.399 531.213L905.975 532.751C906.767 531.424 907.3 529.941 907.589 528.318L904.636 527.791ZM903.399 531.213C902.8 532.217 902.062 533.061 901.185 533.755L903.046 536.108C904.218 535.181 905.195 534.058 905.975 532.751L903.399 531.213ZM901.191 533.75C900.308 534.441 899.312 534.97 898.195 535.337L899.131 538.187C900.567 537.716 901.873 537.025 903.039 536.113L901.191 533.75ZM898.192 535.338C897.088 535.703 895.893 535.891 894.595 535.891V538.891C896.187 538.891 897.703 538.66 899.134 538.186L898.192 535.338ZM894.595 535.891C892.41 535.891 890.52 535.361 888.879 534.332L887.285 536.873C889.445 538.229 891.898 538.891 894.595 538.891V535.891ZM888.879 534.332C887.235 533.3 885.918 531.823 884.939 529.848L882.251 531.181C883.453 533.604 885.128 535.519 887.285 536.873L888.879 534.332ZM884.939 529.848C883.973 527.898 883.46 525.527 883.46 522.687H880.46C880.46 525.885 881.038 528.732 882.251 531.181L884.939 529.848ZM883.46 522.687C883.46 519.847 883.973 517.476 884.939 515.526L882.251 514.194C881.038 516.642 880.46 519.489 880.46 522.687H883.46ZM884.939 515.526C885.918 513.551 887.235 512.075 888.879 511.043L887.285 508.502C885.128 509.855 883.453 511.771 882.251 514.194L884.939 515.526ZM888.879 511.043C890.52 510.013 892.41 509.483 894.595 509.483V506.483C891.898 506.483 889.445 507.146 887.285 508.502L888.879 511.043ZM894.595 509.483C895.893 509.483 897.088 509.671 898.192 510.036L899.134 507.188C897.703 506.715 896.187 506.483 894.595 506.483V509.483ZM898.195 510.037C899.309 510.403 900.302 510.935 901.185 511.634L903.046 509.281C901.878 508.357 900.57 507.66 899.131 507.187L898.195 510.037ZM901.191 511.639C902.066 512.322 902.801 513.159 903.399 514.161L905.975 512.624C905.194 511.315 904.215 510.195 903.039 509.275L901.191 511.639ZM903.402 514.166C903.986 515.137 904.403 516.269 904.636 517.582L907.59 517.058C907.301 515.426 906.767 513.94 905.972 512.619L903.402 514.166ZM916.431 537V538.5H917.49L917.844 537.502L916.431 537ZM912.797 537L911.388 536.483L910.648 538.5H912.797V537ZM923.307 508.375V506.875H922.26L921.899 507.858L923.307 508.375ZM926.886 508.375L928.294 507.858L927.933 506.875H926.886V508.375ZM937.397 537V538.5H939.545L938.805 536.483L937.397 537ZM933.762 537L932.349 537.502L932.703 538.5H933.762V537ZM925.208 512.903L926.622 512.401L926.268 511.403H925.208V512.903ZM924.985 512.903V511.403H923.925L923.571 512.401L924.985 512.903ZM917.772 525.818V524.318H916.272V525.818H917.772ZM932.421 525.818H933.921V524.318H932.421V525.818ZM932.421 528.893V530.393H933.921V528.893H932.421ZM917.772 528.893H916.272V530.393H917.772V528.893ZM916.431 535.5H912.797V538.5H916.431V535.5ZM914.205 537.517L924.715 508.892L921.899 507.858L911.388 536.483L914.205 537.517ZM923.307 509.875H926.886V506.875H923.307V509.875ZM925.478 508.892L935.988 537.517L938.805 536.483L928.294 507.858L925.478 508.892ZM937.397 535.5H933.762V538.5H937.397V535.5ZM935.176 536.498L926.622 512.401L923.795 513.405L932.349 537.502L935.176 536.498ZM925.208 511.403H924.985V514.403H925.208V511.403ZM923.571 512.401L915.017 536.498L917.844 537.502L926.398 513.405L923.571 512.401ZM917.772 527.318H932.421V524.318H917.772V527.318ZM930.921 525.818V528.893H933.921V525.818H930.921ZM932.421 527.393H917.772V530.393H932.421V527.393ZM919.272 528.893V525.818H916.272V528.893H919.272Z" fill="white" mask="url(#path-1-outside-1_39_2)"/>
<g filter="url(#filter0_i_39_2)">
<path d="M338.619 460.621H236.214C236.028 460.621 235.844 460.576 235.678 460.491C235.512 460.406 235.368 460.282 235.258 460.13L204.096 416.844C204.083 416.826 204.075 416.806 204.073 416.784C204.071 416.763 204.076 416.741 204.085 416.722C204.095 416.703 204.11 416.686 204.129 416.675C204.147 416.664 204.168 416.658 204.19 416.658C284.244 416.658 364.31 416.658 444.387 416.658C454.007 416.658 461.976 422.843 462.822 432.708C463.526 440.95 459.462 445.546 453.215 450.023C375.78 505.533 298.272 561.057 220.693 616.592C220.462 616.758 220.25 616.735 220.057 616.523L27.0814 403.414C27.0296 403.357 27.0006 403.283 27 403.207C26.9994 403.13 27.0273 403.056 27.0783 402.999L62.9026 362.069C62.9224 362.047 62.9466 362.03 62.9737 362.018C63.0008 362.006 63.0302 362 63.0599 362H337.015C337.049 362 337.083 362.008 337.113 362.024C337.143 362.04 337.168 362.063 337.187 362.092C337.206 362.12 337.217 362.153 337.22 362.187C337.223 362.221 337.217 362.255 337.204 362.286L318.851 404.239C318.811 404.33 318.745 404.408 318.661 404.463C318.577 404.518 318.479 404.547 318.379 404.547H130.987C130.922 404.547 130.857 404.562 130.798 404.591C130.739 404.619 130.688 404.661 130.647 404.712C130.606 404.764 130.578 404.824 130.564 404.888C130.55 404.952 130.55 405.018 130.566 405.082C130.603 405.239 130.706 405.412 130.874 405.601C168.045 446.867 205.207 488.141 242.361 529.422C242.925 530.052 243.488 530.634 244.05 531.168C244.112 531.227 244.192 531.263 244.277 531.268C244.362 531.273 244.445 531.248 244.513 531.197L338.673 460.784C338.688 460.773 338.699 460.757 338.704 460.739C338.71 460.721 338.71 460.701 338.704 460.684C338.698 460.666 338.687 460.65 338.672 460.639C338.656 460.627 338.638 460.621 338.619 460.621Z" fill="white"/>
</g>
<g filter="url(#filter1_i_39_2)">
<path d="M334.81 404.078L353.729 362.154C353.75 362.108 353.784 362.069 353.829 362.042C353.874 362.015 353.926 362 353.98 362C427.391 362 500.799 362 574.205 362C586.065 362 598.683 363.318 610.146 366.794C639.21 375.599 660.199 401.502 658.985 432.387C657.61 467.258 630.493 494.274 598.211 503.492C589.374 506.015 580.302 507.606 571.192 508C568.943 508.098 566.088 508.157 562.626 508.176C545.577 508.266 528.529 508.332 511.481 508.374C510.355 508.377 510.037 508.767 509.178 509.393C457.925 546.813 406.634 584.26 355.305 621.733C355.068 621.906 354.78 622 354.484 622H233.827C233.798 622 233.77 621.991 233.747 621.974C233.724 621.957 233.707 621.933 233.698 621.906C233.689 621.879 233.689 621.849 233.698 621.822C233.707 621.795 233.725 621.771 233.748 621.755C310.074 565.179 386.393 508.565 462.706 451.913C482.206 437.436 472.366 410.414 450.899 405.708C446.873 404.824 442.535 404.644 437.813 404.632C403.557 404.533 369.328 404.511 335.125 404.566C335.067 404.566 335.01 404.551 334.96 404.523C334.909 404.496 334.866 404.456 334.835 404.407C334.804 404.359 334.785 404.303 334.781 404.246C334.776 404.188 334.786 404.131 334.81 404.078Z" fill="#7DDF00"/>
</g>
<path d="M537.638 467.68C535.193 466.891 532.821 465.82 530.52 464.465C528.218 463.111 525.938 461.495 523.678 459.618C527.459 450.942 532.752 443.408 539.558 437.017C546.364 430.626 554.093 425.555 562.746 421.804C553.26 423.323 544.436 426.528 536.276 431.419C528.116 436.31 521.439 442.743 516.245 450.717C516.021 450.399 515.821 450.07 515.646 449.729L515.081 448.624C512.723 444.019 511.33 439.276 510.903 434.395C510.476 429.514 511.014 424.739 512.517 420.072C514.142 415.035 516.696 410.543 520.178 406.596C523.659 402.649 527.752 399.471 532.454 397.063C540.39 392.999 549.428 391.602 559.569 392.872C569.709 394.142 583.17 398.301 599.952 405.349C595.573 423.482 590.994 436.911 586.216 445.635C581.438 454.358 575.131 460.726 567.294 464.736C562.493 467.195 557.535 468.683 552.418 469.201C547.301 469.718 542.375 469.212 537.638 467.68Z" fill="white"/>
<path d="M65.5483 110.636V147H61.1449V115.253H60.9318L52.054 121.148V116.673L61.1449 110.636H65.5483Z" fill="white"/>
<defs>
<filter id="filter0_i_39_2" x="27" y="362" width="444.501" height="262.701" filterUnits="userSpaceOnUse" color-interpolation-filters="sRGB">
<feFlood flood-opacity="0" result="BackgroundImageFix"/>
<feBlend mode="normal" in="SourceGraphic" in2="BackgroundImageFix" result="shape"/>
<feColorMatrix in="SourceAlpha" type="matrix" values="0 0 0 0 0 0 0 0 0 0 0 0 0 0 0 0 0 0 127 0" result="hardAlpha"/>
<feOffset dx="11" dy="8"/>
<feGaussianBlur stdDeviation="4.3"/>
<feComposite in2="hardAlpha" operator="arithmetic" k2="-1" k3="1"/>
<feColorMatrix type="matrix" values="0 0 0 0 0 0 0 0 0 0 0 0 0 0 0 0 0 0 0.25 0"/>
<feBlend mode="normal" in2="shape" result="effect1_innerShadow_39_2"/>
</filter>
<filter id="filter1_i_39_2" x="233.691" y="362" width="433.943" height="268" filterUnits="userSpaceOnUse" color-interpolation-filters="sRGB">
<feFlood flood-opacity="0" result="BackgroundImageFix"/>
<feBlend mode="normal" in="SourceGraphic" in2="BackgroundImageFix" result="shape"/>
<feColorMatrix in="SourceAlpha" type="matrix" values="0 0 0 0 0 0 0 0 0 0 0 0 0 0 0 0 0 0 127 0" result="hardAlpha"/>
<feOffset dx="11" dy="8"/>
<feGaussianBlur stdDeviation="4.3"/>
<feComposite in2="hardAlpha" operator="arithmetic" k2="-1" k3="1"/>
<feColorMatrix type="matrix" values="0 0 0 0 0 0 0 0 0 0 0 0 0 0 0 0 0 0 0.25 0"/>
<feBlend mode="normal" in2="shape" result="effect1_innerShadow_39_2"/>
</filter>
</defs>
</svg>
