<?xml version="1.0" standalone="no"?>
<!DOCTYPE svg PUBLIC "-//W3C//DTD SVG 20010904//EN"
 "http://www.w3.org/TR/2001/REC-SVG-20010904/DTD/svg10.dtd">
<svg version="1.0" xmlns="http://www.w3.org/2000/svg"
 width="1080.000000pt" height="1080.000000pt" viewBox="0 0 1080.000000 1080.000000"
 preserveAspectRatio="xMidYMid meet">

<g transform="translate(0.000000,1080.000000) scale(0.100000,-0.100000)"
fill="#000000" stroke="none">
<path d="M0 5400 l0 -5400 5400 0 5400 0 0 5400 0 5400 -5400 0 -5400 0 0
-5400z m5309 1703 c0 -5 -55 -134 -123 -288 l-122 -280 -1283 -3 c-807 -1
-1281 -6 -1279 -12 2 -5 150 -173 330 -373 181 -200 338 -375 350 -389 13 -15
212 -235 442 -491 l420 -466 30 21 c17 12 308 229 646 482 l615 461 -705 3
-705 3 -44 62 c-25 34 -101 141 -170 237 -69 96 -139 195 -156 218 -16 24 -36
52 -44 63 -14 19 -1 19 1660 17 l1674 -3 49 -25 c142 -73 180 -249 78 -362
-20 -22 -72 -66 -117 -97 -44 -32 -242 -174 -440 -316 -198 -142 -470 -337
-605 -434 -135 -96 -326 -233 -425 -305 -99 -71 -222 -159 -273 -195 -51 -36
-152 -109 -225 -161 -210 -152 -408 -294 -462 -332 -27 -19 -195 -139 -373
-266 -178 -128 -327 -232 -332 -232 -4 0 -25 19 -46 43 -38 43 -191 212 -209
231 -6 6 -159 175 -340 376 -181 201 -348 385 -371 410 -23 25 -304 335 -624
690 -321 355 -622 687 -669 739 -47 52 -152 168 -233 258 l-148 163 243 279
242 279 1873 1 c1029 1 1872 -2 1871 -6z m3453 -9 c316 -39 508 -123 684 -298
172 -173 254 -370 254 -614 0 -208 -66 -401 -199 -578 -189 -253 -515 -427
-890 -474 -47 -5 -272 -10 -506 -10 l-422 0 -84 -62 c-46 -35 -116 -86 -154
-114 -39 -28 -207 -151 -375 -274 -290 -213 -704 -515 -1257 -917 l-252 -183
-818 2 -818 3 105 78 c58 42 112 83 120 90 9 7 38 28 65 47 28 18 52 36 55 40
3 3 50 39 105 80 55 41 105 78 110 82 6 4 58 43 116 85 59 43 155 114 214 158
60 44 183 135 274 202 91 68 173 129 181 135 8 7 28 21 43 31 16 10 36 25 45
32 9 8 103 78 207 155 105 78 201 150 215 160 14 10 111 82 215 160 105 77
201 150 215 160 14 10 111 82 215 160 105 77 197 146 205 153 9 6 38 28 65 47
28 19 55 39 62 45 6 5 54 42 107 80 53 39 96 73 96 78 0 4 7 7 15 7 27 0 153
133 175 186 31 70 26 207 -10 279 -53 109 -172 195 -297 215 -32 6 -327 10
-663 10 -333 0 -668 3 -746 7 l-141 6 33 77 c19 43 34 83 34 89 0 6 5 11 10
11 6 0 10 5 10 10 0 10 10 33 86 197 23 50 45 102 49 115 5 12 15 33 23 46
l14 22 1543 0 c1336 0 1560 -2 1667 -16z"/>
<path d="M8154 6691 c-128 -21 -228 -72 -319 -165 -80 -81 -119 -153 -142
-259 -23 -110 -4 -239 49 -341 l14 -26 38 50 c98 128 282 256 439 305 129 40
136 39 52 -11 -162 -95 -298 -225 -374 -358 -61 -107 -61 -108 -4 -144 103
-66 161 -86 264 -90 254 -11 455 122 573 380 42 91 97 251 131 383 30 117 35
108 -89 155 -271 104 -482 145 -632 121z"/>
</g>
</svg>
